<?xml version="1.0" encoding="UTF-8"?>
<svg version="1.1" xmlns="http://www.w3.org/2000/svg" width="49" height="49">
<path d="M0 0 C5.25509845 3.14712111 9.15672585 7.36097048 11.51171875 13.0546875 C12.41557575 20.2474864 12.3895214 26.53585757 7.93359375 32.46875 C4.09259387 36.75294217 1.29828569 38.5164022 -4.48828125 39.0546875 C-4.81828125 35.4246875 -5.14828125 31.7946875 -5.48828125 28.0546875 C-4.35390625 27.7865625 -3.21953125 27.5184375 -2.05078125 27.2421875 C-0.87515625 26.8503125 0.30046875 26.4584375 1.51171875 26.0546875 C2.82689153 22.10916915 3.42329795 17.8778459 1.51171875 14.0546875 C1.47172675 12.05508738 1.46825076 10.05421508 1.51171875 8.0546875 C0.98578125 8.37953125 0.45984375 8.704375 -0.08203125 9.0390625 C-3.16548409 10.34051987 -5.64895515 10.32000551 -8.98828125 10.3046875 C-10.11234375 10.30984375 -11.23640625 10.315 -12.39453125 10.3203125 C-15.33869868 10.06753045 -17.0052363 9.58833291 -19.48828125 8.0546875 C-19.46765625 9.0034375 -19.44703125 9.9521875 -19.42578125 10.9296875 C-19.48828125 14.0546875 -19.48828125 14.0546875 -20.48828125 16.0546875 C-20.64176768 19.58487547 -20.52973371 22.66996702 -19.48828125 26.0546875 C-17.17828125 26.7146875 -14.86828125 27.3746875 -12.48828125 28.0546875 C-12.81828125 29.3746875 -13.14828125 30.6946875 -13.48828125 32.0546875 C-15.13828125 32.0546875 -16.78828125 32.0546875 -18.48828125 32.0546875 C-18.48828125 32.3846875 -18.48828125 32.7146875 -18.48828125 33.0546875 C-16.83828125 33.3846875 -15.18828125 33.7146875 -13.48828125 34.0546875 C-13.48828125 35.7046875 -13.48828125 37.3546875 -13.48828125 39.0546875 C-19.428566 38.76491751 -22.56726492 36.2331443 -26.48828125 32.0546875 C-30.66422043 26.53167117 -30.35357977 19.67786028 -29.48828125 13.0546875 C-27.20381493 7.08499156 -23.12658682 3.2731665 -17.7265625 -0.01953125 C-12.39792959 -2.22352078 -5.35134738 -2.03300795 0 0 Z " fill="#000000" transform="translate(33.48828125,4.9453125)"/>
</svg>
