<svg width="41" height="40" viewBox="0 0 41 40" fill="none" xmlns="http://www.w3.org/2000/svg">
<path d="M20.4167 0C9.13646 0 0 9.13646 0 20.4167C0 29.451 5.84427 37.0818 13.9599 39.787C14.9807 39.9656 15.3635 39.3531 15.3635 38.8172C15.3635 38.3323 15.338 36.7245 15.338 35.0146C10.2083 35.9589 8.88125 33.7641 8.47292 32.6156C8.24323 32.0286 7.24792 30.2167 6.38021 29.7318C5.66563 29.349 4.64479 28.4047 6.35469 28.3792C7.9625 28.3536 9.11094 29.8594 9.49375 30.4719C11.3313 33.5599 14.2661 32.6922 15.4401 32.1562C15.6188 30.8292 16.1547 29.9359 16.7417 29.4255C12.199 28.9151 7.45208 27.1542 7.45208 19.3448C7.45208 17.1245 8.24323 15.287 9.54479 13.8578C9.34063 13.3474 8.62604 11.2547 9.74896 8.4474C9.74896 8.4474 11.4589 7.91146 15.3635 10.5401C16.9969 10.0807 18.7323 9.85104 20.4678 9.85104C22.2032 9.85104 23.9386 10.0807 25.5719 10.5401C29.4766 7.88594 31.1865 8.4474 31.1865 8.4474C32.3094 11.2547 31.5948 13.3474 31.3907 13.8578C32.6922 15.287 33.4834 17.099 33.4834 19.3448C33.4834 27.1797 28.711 28.9151 24.1683 29.4255C24.9084 30.0635 25.5464 31.2885 25.5464 33.2026C25.5464 35.9333 25.5209 38.1281 25.5209 38.8172C25.5209 39.3531 25.9037 39.9911 26.9245 39.787C35.2351 36.9813 40.8311 29.1883 40.8334 20.4167C40.8334 9.13646 31.6969 0 20.4167 0Z" fill="black"/>
</svg>
