<svg width="37" height="37" viewBox="0 0 37 37" fill="none" xmlns="http://www.w3.org/2000/svg">
<path d="M31.3094 31.3171H25.8673V22.7895C25.8673 20.756 25.8261 18.1392 23.0315 18.1392C20.1942 18.1392 19.7607 20.3519 19.7607 22.6394V31.3171H14.3187V13.7813H19.5463V16.1714H19.6168C20.3473 14.7933 22.1235 13.3387 24.7771 13.3387C30.2912 13.3387 31.311 16.9679 31.311 21.6917L31.3094 31.3171ZM8.17228 11.3818C6.42053 11.3818 5.01331 9.96384 5.01331 8.21975C5.01331 6.47719 6.42206 5.06078 8.17228 5.06078C9.91791 5.06078 11.3328 6.47719 11.3328 8.21975C11.3328 9.96384 9.91637 11.3818 8.17228 11.3818ZM10.901 31.3171H5.44359V13.7813H10.901V31.3171ZM34.032 0H2.71184C1.21275 0 0 1.18519 0 2.64753V34.1026C0 35.5662 1.21275 36.75 2.71184 36.75H34.0275C35.525 36.75 36.75 35.5662 36.75 34.1026V2.64753C36.75 1.18519 35.525 0 34.0275 0H34.032Z" fill="white"/>
</svg>
