<?xml version="1.0" encoding="UTF-8"?>
<svg version="1.1" xmlns="http://www.w3.org/2000/svg" width="125" height="125">
<path d="M0 0 C1.11435928 -0.01036789 2.22871857 -0.02073578 3.37684631 -0.03141785 C7.05954843 -0.05851714 10.74106222 -0.04881953 14.42382812 -0.03637695 C16.98303561 -0.04228414 19.54224034 -0.04953012 22.10144043 -0.05805969 C27.46476183 -0.0699455 32.82765283 -0.06364682 38.19091797 -0.04394531 C44.38574887 -0.02157542 50.57953802 -0.03918932 56.77427053 -0.0769946 C62.74107174 -0.11201412 68.70754916 -0.1134175 74.67445374 -0.10111427 C77.21022157 -0.09962594 79.74601193 -0.10733633 82.28172302 -0.12436485 C85.82529931 -0.1442987 89.36668163 -0.12598099 92.91015625 -0.09765625 C93.95965958 -0.11137268 95.0091629 -0.12508911 96.09046936 -0.13922119 C100.85746407 -0.06296218 103.21877603 0.10980963 107.10693359 3.03018188 C109.99991804 7.45577822 109.63690169 12.43567123 109.5703125 17.54589844 C109.57586151 18.63114304 109.58141052 19.71638763 109.58712769 20.83451843 C109.5989189 24.41446361 109.57465371 27.99314177 109.54882812 31.57299805 C109.54711696 34.06351158 109.54718276 36.55402691 109.5489502 39.04454041 C109.54708573 44.92825402 109.52084996 50.81150357 109.48479891 56.69509739 C109.45021315 62.71485734 109.45377708 68.73426006 109.46053314 74.75409794 C109.46360179 79.89535174 109.45148628 85.03647896 109.43440247 90.17770195 C109.42736971 92.64367313 109.42424826 95.10965866 109.4250946 97.57563972 C109.42329792 101.02041718 109.40192654 104.46451898 109.375 107.90917969 C109.3779306 108.92905975 109.38086121 109.94893982 109.38388062 110.99972534 C109.27648465 119.89991589 109.27648465 119.89991589 105.95507812 123.6628418 C102.97199246 125.47941416 100.73256064 125.91718223 97.26248169 125.93699646 C96.32326874 125.94697159 95.38405579 125.95694672 94.41638184 125.96722412 C93.39290649 125.96788879 92.36943115 125.96855347 91.31494141 125.96923828 C90.23159515 125.9775618 89.1482489 125.98588531 88.03207397 125.99446106 C84.44647643 126.01858057 80.86106072 126.02733538 77.27539062 126.03393555 C74.78441309 126.0428999 72.29343612 126.0520217 69.80245972 126.06129456 C64.57874238 126.07779208 59.35508919 126.08548616 54.13134766 126.08837891 C48.76723627 126.09161208 43.40353272 126.11275229 38.03955078 126.14990234 C31.56394553 126.19408076 25.0887246 126.2138424 18.61297226 126.21510506 C16.14500033 126.21931331 13.67702821 126.23177163 11.20914078 126.2526226 C7.75697708 126.27946917 4.30621859 126.27473047 0.85400391 126.26220703 C-0.67513641 126.28445847 -0.67513641 126.28445847 -2.23516846 126.30715942 C-6.44870921 126.26361877 -10.07708969 126.16990841 -13.67857361 123.81568909 C-17.15759867 119.18034657 -16.87939106 115.27777086 -16.80541992 109.61791992 C-16.81878136 107.946381 -16.81878136 107.946381 -16.83241272 106.24107361 C-16.85371987 102.5581505 -16.83137294 98.87697231 -16.80664062 95.1940918 C-16.80814271 92.63488587 -16.81157191 90.07568042 -16.81684875 87.51647949 C-16.82118264 82.1530668 -16.80494782 76.79027285 -16.7722168 71.42700195 C-16.73472327 65.23225105 -16.73650189 59.03845053 -16.75925797 52.84364939 C-16.78022951 46.87682942 -16.77282612 40.91030122 -16.75293922 34.94346619 C-16.74708619 32.40771616 -16.74839648 29.87193921 -16.75696373 27.3361969 C-16.76494824 23.79277562 -16.74072968 20.25100905 -16.70776367 16.70776367 C-16.71631378 15.65826035 -16.72486389 14.60875702 -16.7336731 13.52745056 C-16.66251042 9.09920521 -16.46562001 6.37847771 -14.19380188 2.51396179 C-9.50775769 -0.24080501 -5.3483227 -0.0435718 0 0 Z M1.95507812 23.6628418 C0.58736655 27.44416203 0.73787558 29.07982443 2.14257812 32.8503418 C3.96402143 35.67671934 4.96385676 37.16723111 7.95507812 38.6628418 C11.30827579 39.15961182 13.72561413 39.4038134 16.70507812 37.6081543 C20.01591206 34.91810172 21.78418515 33.16669994 22.26757812 28.9128418 C21.87728785 24.85382295 20.45920435 22.82982496 17.95507812 19.6628418 C11.4465222 16.40856383 6.37490759 18.70400873 1.95507812 23.6628418 Z M50.95507812 54.6628418 C50.62507813 52.3528418 50.29507813 50.0428418 49.95507812 47.6628418 C44.34507813 47.6628418 38.73507813 47.6628418 32.95507812 47.6628418 C32.95507812 67.1328418 32.95507812 86.6028418 32.95507812 106.6628418 C38.89507812 106.6628418 44.83507813 106.6628418 50.95507812 106.6628418 C51.0040625 103.96612305 51.05304688 101.2694043 51.10351562 98.4909668 C51.15754095 95.8763275 51.21484233 93.26177908 51.27246094 90.6472168 C51.31072004 88.83153059 51.3455783 87.01576938 51.37695312 85.19995117 C51.42267042 82.58835057 51.48065349 79.97726492 51.54101562 77.3659668 C51.55834244 76.15012909 51.55834244 76.15012909 51.57601929 74.909729 C51.76202359 67.79065721 51.76202359 67.79065721 53.95507812 64.6628418 C57.00595639 62.31601236 60.32571654 62.24839729 64.05273438 62.33862305 C67.01885696 62.84414291 68.24907185 64.27443301 69.95507812 66.6628418 C71.22133236 70.4616045 71.1880636 74.08706106 71.27148438 78.04956055 C71.29226547 78.86656937 71.31304657 79.68357819 71.3344574 80.52534485 C71.39980892 83.13359213 71.45877086 85.74193955 71.51757812 88.3503418 C71.56077704 90.11923233 71.60439178 91.88811277 71.6484375 93.65698242 C71.75625769 97.99216776 71.85543785 102.32742981 71.95507812 106.6628418 C77.89507812 106.6628418 83.83507812 106.6628418 89.95507812 106.6628418 C90.00131603 101.59465404 90.04104142 96.52721601 90.06494141 91.45898438 C90.07491842 89.73955792 90.08850487 88.02014808 90.10595703 86.30078125 C90.75913797 68.0621473 90.75913797 68.0621473 83.95507812 51.6628418 C73.11230516 43.25416072 60.05048732 44.76489649 50.95507812 54.6628418 Z M2.95507812 47.6628418 C2.95507812 67.1328418 2.95507812 86.6028418 2.95507812 106.6628418 C8.56507812 106.6628418 14.17507812 106.6628418 19.95507812 106.6628418 C19.95507812 87.1928418 19.95507812 67.7228418 19.95507812 47.6628418 C14.34507813 47.6628418 8.73507813 47.6628418 2.95507812 47.6628418 Z " fill="#000000" transform="translate(16.044921875,-0.662841796875)"/>
</svg>
